{
  "accessors": {
    "accessor_157": {
      "bufferView": "bufferView_1",
      "byteOffset": 0,
      "byteStride": 0,
      "componentType": 5123,
      "count": 3957,
      "type": "SCALAR",
      "min": [
        0
      ],
      "max": [
        3956
      ]
    },
    "accessor_160": {
      "bufferView": "bufferView_1",
      "byteOffset": 7914,
      "byteStride": 0,
      "componentType": 5123,
      "count": 18,
      "type": "SCALAR",
      "min": [
        3957
      ],
      "max": [
        3974
      ]
    },
    "accessor_163": {
      "bufferView": "bufferView_1",
      "byteOffset": 7950,
      "byteStride": 0,
      "componentType": 5123,
      "count": 1782,
      "type": "SCALAR",
      "min": [
        3975
      ],
      "max": [
        5756
      ]
    },
    "accessor_166": {
      "bufferView": "bufferView_1",
      "byteOffset": 11514,
      "byteStride": 0,
      "componentType": 5123,
      "count": 29961,
      "type": "SCALAR",
      "min": [
        5757
      ],
      "max": [
        35717
      ]
    },
    "accessor_169": {
      "bufferView": "bufferView_1",
      "byteOffset": 71436,
      "byteStride": 0,
      "componentType": 5123,
      "count": 1638,
      "type": "SCALAR",
      "min": [
        35718
      ],
      "max": [
        37355
      ]
    },
    "accessor_172": {
      "bufferView": "bufferView_1",
      "byteOffset": 74712,
      "byteStride": 0,
      "componentType": 5123,
      "count": 24,
      "type": "SCALAR",
      "min": [
        37356
      ],
      "max": [
        37379
      ]
    },
    "accessor_175": {
      "bufferView": "bufferView_1",
      "byteOffset": 74760,
      "byteStride": 0,
      "componentType": 5123,
      "count": 18,
      "type": "SCALAR",
      "min": [
        37380
      ],
      "max": [
        37397
      ]
    },
    "accessor_178": {
      "bufferView": "bufferView_1",
      "byteOffset": 74796,
      "byteStride": 0,
      "componentType": 5123,
      "count": 4164,
      "type": "SCALAR",
      "min": [
        37398
      ],
      "max": [
        41561
      ]
    },
    "accessor_181": {
      "bufferView": "bufferView_1",
      "byteOffset": 83124,
      "byteStride": 0,
      "componentType": 5123,
      "count": 15225,
      "type": "SCALAR",
      "min": [
        41562
      ],
      "max": [
        56786
      ]
    },
    "accessor_183": {
      "bufferView": "bufferView_0",
      "byteOffset": 0,
      "byteStride": 0,
      "componentType": 5123,
      "count": 26877,
      "max": [
        65535,
        65535,
        65535
      ],
      "min": [
        0,
        0,
        0
      ],
      "type": "VEC3",
      "extensions": {
        "WEB3D_quantized_attributes": {
          "decodedMin": [
            -1.0081372261047363,
            -0.13577432930469513,
            -2.091221332550049
          ],
          "decodedMax": [
            0.9856160283088684,
            0.1347769945859909,
            2.0809884071350098
          ],
          "decodeMatrix": [
            0.000030422724565706947,
            0,
            0,
            0,
            0,
            0.000004128348575428184,
            0,
            0,
            0,
            0,
            0.00006366383977546438,
            0,
            -1.0081372261047363,
            -0.13577432930469513,
            -2.091221332550049,
            1
          ]
        }
      }
    },
    "accessor_185": {
      "bufferView": "bufferView_0",
      "byteOffset": 161286,
      "byteStride": 0,
      "componentType": 5121,
      "count": 26877,
      "max": [
        255,
        255
      ],
      "min": [
        0,
        0
      ],
      "type": "VEC2"
    },
    "accessor_197": {
      "bufferView": "bufferView_1",
      "byteOffset": 113574,
      "byteStride": 0,
      "componentType": 5123,
      "count": 4,
      "type": "SCALAR",
      "min": [
        0
      ],
      "max": [
        3
      ]
    },
    "accessor_199": {
      "bufferView": "bufferView_0",
      "byteOffset": 161262,
      "byteStride": 0,
      "componentType": 5123,
      "count": 4,
      "max": [
        65535,
        65535,
        65535
      ],
      "min": [
        0,
        0,
        0
      ],
      "type": "VEC3",
      "extensions": {
        "WEB3D_quantized_attributes": {
          "decodedMin": [
            -0.21412700414657593,
            0.5274530053138733,
            -1
          ],
          "decodedMax": [
            -0.10795299708843231,
            0.603646993637085,
            -1
          ],
          "decodeMatrix": [
            0.0000016201114985602138,
            0,
            0,
            0,
            0,
            0.0000011626457362205185,
            0,
            0,
            0,
            0,
            0,
            0,
            -0.21412700414657593,
            0.5274530053138733,
            -1,
            1
          ]
        }
      }
    }
  },
  "animations": {},
  "asset": {
    "generator": "collada2gltf@",
    "premultipliedAlpha": true,
    "profile": {
      "api": "WebGL",
      "version": "1.0.2"
    },
    "version": "1.0"
  },
  "bufferViews": {
    "bufferView_0": {
      "buffer": "buffer_0",
      "byteLength": 215040,
      "byteOffset": 0,
      "target": 34962
    },
    "bufferView_1": {
      "buffer": "buffer_0",
      "byteLength": 113582,
      "byteOffset": 215040,
      "target": 34963
    }
  },
  "buffers": {
    "buffer_0": {
      "type": "arraybuffer",
      "byteLength": 328622,
      "uri": "data:application/octet-stream;base64,"
    }
  },
  "cameras": {
    "Camera-camera": {
      "name": "Camera",
      "perspective": {
        "aspectRatio": 1.7777799367904663,
        "yfov": 0.48237427870788735,
        "zfar": 100,
        "znear": 0.10000000149011612
      },
      "type": "perspective"
    }
  },
  "materials": {
    "Aluminium-effect": {
      "name": "Aluminium",
      "technique": "technique0",
      "values": {
        "ambient": [
          0,
          0,
          0,
          1
        ],
        "diffuse": [
          0.6399999856948853,
          0.6399999856948853,
          0.6399999856948853,
          1
        ],
        "emission": [
          0,
          0,
          0,
          1
        ],
        "shininess": 50,
        "specular": [
          0.5,
          0.5,
          0.5,
          1
        ]
      }
    },
    "Apple-effect": {
      "name": "Apple",
      "technique": "technique0",
      "values": {
        "ambient": [
          0,
          0,
          0,
          1
        ],
        "diffuse": [
          0.6399999856948853,
          0.6399999856948853,
          0.6399999856948853,
          1
        ],
        "emission": [
          0,
          0,
          0,
          1
        ],
        "shininess": 50,
        "specular": [
          0.5,
          0.5,
          0.5,
          1
        ]
      }
    },
    "Cadre-effect": {
      "name": "Cadre",
      "technique": "technique0",
      "values": {
        "ambient": [
          0,
          0,
          0,
          1
        ],
        "diffuse": [
          0.6399999856948853,
          0.6399999856948853,
          0.6399999856948853,
          1
        ],
        "emission": [
          0,
          0,
          0,
          1
        ],
        "shininess": 50,
        "specular": [
          0.5,
          0.5,
          0.5,
          1
        ]
      }
    },
    "Camara-effect": {
      "name": "Camara",
      "technique": "technique0",
      "values": {
        "ambient": [
          0,
          0,
          0,
          1
        ],
        "diffuse": [
          0.6399999856948853,
          0.6399999856948853,
          0.6399999856948853,
          1
        ],
        "emission": [
          0,
          0,
          0,
          1
        ],
        "shininess": 50,
        "specular": [
          0.5,
          0.5,
          0.5,
          1
        ]
      }
    },
    "Glass-effect": {
      "name": "Glass",
      "technique": "technique0",
      "values": {
        "ambient": [
          0,
          0,
          0,
          1
        ],
        "diffuse": [
          0.6399999856948853,
          0.6399999856948853,
          0.6399999856948853,
          1
        ],
        "emission": [
          0,
          0,
          0,
          1
        ],
        "shininess": 50,
        "specular": [
          0.5,
          0.5,
          0.5,
          1
        ]
      }
    },
    "Red-effect": {
      "name": "Red",
      "technique": "technique0",
      "values": {
        "ambient": [
          0,
          0,
          0,
          1
        ],
        "diffuse": [
          0.6399999856948853,
          0.6399999856948853,
          0.6399999856948853,
          1
        ],
        "emission": [
          0,
          0,
          0,
          1
        ],
        "shininess": 50,
        "specular": [
          0.5,
          0.5,
          0.5,
          1
        ]
      }
    },
    "SE-effect": {
      "name": "SE",
      "technique": "technique0",
      "values": {
        "ambient": [
          0,
          0,
          0,
          1
        ],
        "diffuse": [
          0.6399999856948853,
          0.6399999856948853,
          0.6399999856948853,
          1
        ],
        "emission": [
          0,
          0,
          0,
          1
        ],
        "shininess": 50,
        "specular": [
          0.5,
          0.5,
          0.5,
          1
        ]
      }
    },
    "Screen-effect": {
      "name": "Screen",
      "technique": "technique0",
      "values": {
        "ambient": [
          0,
          0,
          0,
          1
        ],
        "diffuse": [
          0.6399999856948853,
          0.6399999856948853,
          0.6399999856948853,
          1
        ],
        "emission": [
          0,
          0,
          0,
          1
        ],
        "shininess": 50,
        "specular": [
          0.5,
          0.5,
          0.5,
          1
        ]
      }
    },
    "Srew-effect": {
      "name": "Srew",
      "technique": "technique0",
      "values": {
        "ambient": [
          0,
          0,
          0,
          1
        ],
        "diffuse": [
          0.6399999856948853,
          0.6399999856948853,
          0.6399999856948853,
          1
        ],
        "emission": [
          0,
          0,
          0,
          1
        ],
        "shininess": 50,
        "specular": [
          0.5,
          0.5,
          0.5,
          1
        ]
      }
    },
    "effect-ID1": {
      "name": "material-ID2",
      "technique": "technique1",
      "values": {
        "diffuse": [
          1,
          1,
          1,
          1
        ]
      }
    }
  },
  "meshes": {
    "rootNode_mesh_0": {
      "name": "rootNode_mesh",
      "primitives": [
        {
          "attributes": {
            "NORMAL": "accessor_185",
            "POSITION": "accessor_183"
          },
          "indices": "accessor_157",
          "material": "Cadre-effect",
          "mode": 4
        },
        {
          "attributes": {
            "NORMAL": "accessor_185",
            "POSITION": "accessor_183"
          },
          "indices": "accessor_160",
          "material": "Screen-effect",
          "mode": 4
        },
        {
          "attributes": {
            "NORMAL": "accessor_185",
            "POSITION": "accessor_183"
          },
          "indices": "accessor_163",
          "material": "Apple-effect",
          "mode": 4
        },
        {
          "attributes": {
            "NORMAL": "accessor_185",
            "POSITION": "accessor_183"
          },
          "indices": "accessor_166",
          "material": "Aluminium-effect",
          "mode": 4
        },
        {
          "attributes": {
            "NORMAL": "accessor_185",
            "POSITION": "accessor_183"
          },
          "indices": "accessor_169",
          "material": "Camara-effect",
          "mode": 4
        },
        {
          "attributes": {
            "NORMAL": "accessor_185",
            "POSITION": "accessor_183"
          },
          "indices": "accessor_172",
          "material": "Red-effect",
          "mode": 4
        },
        {
          "attributes": {
            "NORMAL": "accessor_185",
            "POSITION": "accessor_183"
          },
          "indices": "accessor_175",
          "material": "Glass-effect",
          "mode": 4
        },
        {
          "attributes": {
            "NORMAL": "accessor_185",
            "POSITION": "accessor_183"
          },
          "indices": "accessor_178",
          "material": "Srew-effect",
          "mode": 4
        },
        {
          "attributes": {
            "NORMAL": "accessor_185",
            "POSITION": "accessor_183"
          },
          "indices": "accessor_181",
          "material": "SE-effect",
          "mode": 4
        },
        {
          "attributes": {
            "POSITION": "accessor_199"
          },
          "indices": "accessor_197",
          "material": "effect-ID1",
          "mode": 1
        }
      ]
    }
  },
  "nodes": {
    "Camera": {
      "camera": "Camera-camera",
      "children": [],
      "matrix": [
        0.8178929686546326,
        -0.5753700137138367,
        9.311879693996161e-7,
        0,
        0.3294920027256012,
        0.4683760106563568,
        0.8197919726371765,
        0,
        -0.4716840088367462,
        -0.6705020070075989,
        0.5726619958877563,
        0,
        -2.479640007019043,
        -4.193480014801025,
        3.1588099002838135,
        1
      ],
      "name": "Camera"
    },
    "Lamp": {
      "children": [],
      "matrix": [
        0.7811409831047058,
        0.6205549836158752,
        -0.06877540051937103,
        0,
        -0.06652150303125381,
        0.19224700331687927,
        0.9790890216827393,
        0,
        0.6208009719848633,
        -0.7602319717407227,
        0.1914519965648651,
        0,
        6.778689861297607,
        -5.112579822540283,
        3.091869831085205,
        1
      ],
      "name": "Lamp"
    },
    "Lamp_001": {
      "children": [],
      "matrix": [
        0.050213199108839035,
        -0.9804350137710571,
        -0.19032999873161316,
        0,
        0.35322898626327515,
        -0.16081999242305756,
        0.9216110110282898,
        0,
        -0.9341880083084106,
        -0.11350700259208679,
        0.3382430076599121,
        0,
        -9.655769348144531,
        -1.1420000791549683,
        3.8841497898101807,
        1
      ],
      "name": "Lamp_001"
    },
    "node_4": {
      "children": [
        "Lamp_001",
        "Lamp",
        "Camera"
      ],
      "matrix": [
        1,
        0,
        0,
        0,
        0,
        0,
        -1,
        0,
        0,
        1,
        0,
        0,
        0,
        0,
        0,
        1
      ],
      "name": "Y_UP_Transform",
      "meshes": []
    },
    "rootNode": {
      "children": [
        "node_4"
      ],
      "meshes": [
        "rootNode_mesh_0"
      ],
      "matrix": [
        1,
        0,
        0,
        0,
        0,
        1,
        0,
        0,
        0,
        0,
        1,
        0,
        0,
        0,
        0,
        1
      ]
    }
  },
  "programs": {
    "program_0": {
      "attributes": [
        "a_normal",
        "a_position"
      ],
      "fragmentShader": "input0FS",
      "vertexShader": "input0VS"
    },
    "program_1": {
      "attributes": [
        "a_position"
      ],
      "fragmentShader": "input1FS",
      "vertexShader": "input1VS"
    }
  },
  "scene": "defaultScene",
  "scenes": {
    "defaultScene": {
      "nodes": [
        "rootNode"
      ]
    }
  },
  "shaders": {
    "input0FS": {
      "type": 35632,
      "uri": "data:text/plain;base64,"
    },
    "input0VS": {
      "type": 35633,
      "uri": "data:text/plain;base64,"
    },
    "input1FS": {
      "type": 35632,
      "uri": "data:text/plain;base64,"
    },
    "input1VS": {
      "type": 35633,
      "uri": "data:text/plain;base64,"
    }
  },
  "skins": {},
  "techniques": {
    "technique0": {
      "attributes": {
        "a_normal": "normal",
        "a_position": "position"
      },
      "parameters": {
        "ambient": {
          "type": 35666
        },
        "diffuse": {
          "type": 35666
        },
        "emission": {
          "type": 35666
        },
        "light0Color": {
          "type": 35665,
          "value": [
            1,
            1,
            1
          ]
        },
        "light0ConstantAttenuation": {
          "type": 5126,
          "value": 1
        },
        "light0LinearAttenuation": {
          "type": 5126,
          "value": 0
        },
        "light0QuadraticAttenuation": {
          "type": 5126,
          "value": 0.001111089950427413
        },
        "light0Transform": {
          "node": "Lamp",
          "semantic": "MODELVIEW",
          "type": 35676
        },
        "light1Color": {
          "type": 35665,
          "value": [
            1,
            1,
            1
          ]
        },
        "light1ConstantAttenuation": {
          "type": 5126,
          "value": 1
        },
        "light1LinearAttenuation": {
          "type": 5126,
          "value": 0
        },
        "light1QuadraticAttenuation": {
          "type": 5126,
          "value": 0.001111089950427413
        },
        "light1Transform": {
          "node": "Lamp_001",
          "semantic": "MODELVIEW",
          "type": 35676
        },
        "modelViewMatrix": {
          "semantic": "MODELVIEW",
          "type": 35676
        },
        "normal": {
          "semantic": "NORMAL",
          "type": 35667
        },
        "normalMatrix": {
          "semantic": "MODELVIEWINVERSETRANSPOSE",
          "type": 35675
        },
        "position": {
          "semantic": "POSITION",
          "type": 35665
        },
        "projectionMatrix": {
          "semantic": "PROJECTION",
          "type": 35676
        },
        "shininess": {
          "type": 5126
        },
        "specular": {
          "type": 35666
        }
      },
      "program": "program_0",
      "states": {
        "enable": [
          2929,
          2884
        ],
        "disable": []
      },
      "uniforms": {
        "u_ambient": "ambient",
        "u_diffuse": "diffuse",
        "u_emission": "emission",
        "u_light0Color": "light0Color",
        "u_light0ConstantAttenuation": "light0ConstantAttenuation",
        "u_light0LinearAttenuation": "light0LinearAttenuation",
        "u_light0QuadraticAttenuation": "light0QuadraticAttenuation",
        "u_light0Transform": "light0Transform",
        "u_light1Color": "light1Color",
        "u_light1ConstantAttenuation": "light1ConstantAttenuation",
        "u_light1LinearAttenuation": "light1LinearAttenuation",
        "u_light1QuadraticAttenuation": "light1QuadraticAttenuation",
        "u_light1Transform": "light1Transform",
        "u_modelViewMatrix": "modelViewMatrix",
        "u_normalMatrix": "normalMatrix",
        "u_projectionMatrix": "projectionMatrix",
        "u_shininess": "shininess",
        "u_specular": "specular"
      }
    },
    "technique1": {
      "attributes": {
        "a_position": "position"
      },
      "parameters": {
        "diffuse": {
          "type": 35666
        },
        "modelViewMatrix": {
          "semantic": "MODELVIEW",
          "type": 35676
        },
        "position": {
          "semantic": "POSITION",
          "type": 35665
        },
        "projectionMatrix": {
          "semantic": "PROJECTION",
          "type": 35676
        }
      },
      "program": "program_1",
      "states": {
        "enable": [
          2929,
          2884
        ],
        "disable": []
      },
      "uniforms": {
        "u_diffuse": "diffuse",
        "u_modelViewMatrix": "modelViewMatrix",
        "u_projectionMatrix": "projectionMatrix"
      }
    }
  },
  "extensionsUsed": [
    "WEB3D_quantized_attributes"
  ],
  "images": {},
  "samplers": {},
  "textures": {}
}
